REM DIRINDEX 1\2\3,1\2\4,1\2\5,1\2\6
REM DIRNAME folder01,folder02,folder03,folder04,folder05,folder06
TITLE ""
FILE "032 032.mp3" MP3
  TRACK 01 AUDIO
    TITLE "0:"
    INDEX 01 00:00:00
  TRACK 02 AUDIO
    TITLE "3:cjc157_1203"
    INDEX 01 00:00:11
  TRACK 03 AUDIO
    TITLE "0:"
    INDEX 01 00:01:46
  TRACK 04 AUDIO
    TITLE "4:cjc157_1204"
    INDEX 01 00:02:18
  TRACK 05 AUDIO
    TITLE "0:"
    INDEX 01 00:06:71
  TRACK 06 AUDIO
    TITLE "5:cjc157_1205"
    INDEX 01 00:07:47
  TRACK 07 AUDIO
    TITLE "0:"
    INDEX 01 00:10:12
  TRACK 08 AUDIO
    TITLE "5:cjc157_1206"
    INDEX 01 00:10:59
  TRACK 09 AUDIO
    TITLE "0:"
    INDEX 01 00:13:14
  TRACK 10 AUDIO
    TITLE "3:cjc157_1207"
    INDEX 01 00:13:57
  TRACK 11 AUDIO
    TITLE "0:"
    INDEX 01 00:15:19
  TRACK 12 AUDIO
    TITLE "4:cjc157_1208"
    INDEX 01 00:15:64
  TRACK 13 AUDIO
    TITLE "0:"
    INDEX 01 00:17:16
  TRACK 14 AUDIO
    TITLE "5:cjc157_1209"
    INDEX 01 00:17:57
  TRACK 15 AUDIO
    TITLE "0:"
    INDEX 01 00:20:55
  TRACK 16 AUDIO
    TITLE "5:cjc157_1210"
    INDEX 01 00:21:25
  TRACK 17 AUDIO
    TITLE "0:"
    INDEX 01 00:23:57
  TRACK 18 AUDIO
    TITLE "3:cjc157_1211"
    INDEX 01 00:24:25
  TRACK 19 AUDIO
    TITLE "0:"
    INDEX 01 00:25:70
  TRACK 20 AUDIO
    TITLE "4:cjc157_1212"
    INDEX 01 00:26:40
  TRACK 21 AUDIO
    TITLE "0:"
    INDEX 01 00:27:55
  TRACK 22 AUDIO
    TITLE "5:cjc157_1213"
    INDEX 01 00:28:23
  TRACK 23 AUDIO
    TITLE "0:"
    INDEX 01 00:30:48
  TRACK 24 AUDIO
    TITLE "5:cjc157_1214"
    INDEX 01 00:31:29
  TRACK 25 AUDIO
    TITLE "0:"
    INDEX 01 00:34:20
  TRACK 26 AUDIO
    TITLE "3:cjc157_1215"
    INDEX 01 00:34:67
  TRACK 27 AUDIO
    TITLE "0:"
    INDEX 01 00:36:25
  TRACK 28 AUDIO
    TITLE "4:cjc157_1216"
    INDEX 01 00:36:70
  TRACK 29 AUDIO
    TITLE "0:"
    INDEX 01 00:38:14
  TRACK 30 AUDIO
    TITLE "5:cjc157_1217"
    INDEX 01 00:38:61
  TRACK 31 AUDIO
    TITLE "0:"
    INDEX 01 00:40:38
  TRACK 32 AUDIO
    TITLE "5:cjc157_1218"
    INDEX 01 00:41:12
  TRACK 33 AUDIO
    TITLE "0:"
    INDEX 01 00:44:26
  TRACK 34 AUDIO
    TITLE "3:cjc157_1219"
    INDEX 01 00:44:67
  TRACK 35 AUDIO
    TITLE "0:"
    INDEX 01 00:46:54
  TRACK 36 AUDIO
    TITLE "4:cjc157_1220"
    INDEX 01 00:47:27
  TRACK 37 AUDIO
    TITLE "0:"
    INDEX 01 00:48:38
  TRACK 38 AUDIO
    TITLE "5:cjc157_1221"
    INDEX 01 00:49:08
  TRACK 39 AUDIO
    TITLE "0:"
    INDEX 01 00:51:69
  TRACK 40 AUDIO
    TITLE "5:cjc157_1222"
    INDEX 01 00:52:41
  TRACK 41 AUDIO
    TITLE "0:"
    INDEX 01 00:55:03
  TRACK 42 AUDIO
    TITLE "3:cjc157_1223"
    INDEX 01 00:55:44
  TRACK 43 AUDIO
    TITLE "0:"
    INDEX 01 00:57:09
  TRACK 44 AUDIO
    TITLE "4:cjc157_1224"
    INDEX 01 00:57:58
  TRACK 45 AUDIO
    TITLE "0:"
    INDEX 01 00:59:12
  TRACK 46 AUDIO
    TITLE "5:cjc157_1225"
    INDEX 01 00:59:55
  TRACK 47 AUDIO
    TITLE "0:"
    INDEX 01 01:03:02
  TRACK 48 AUDIO
    TITLE "5:cjc157_1226"
    INDEX 01 01:03:47
  TRACK 49 AUDIO
    TITLE "0:"
    INDEX 01 01:05:54
  TRACK 50 AUDIO
    TITLE "3:cjc157_1227"
    INDEX 01 01:06:28
  TRACK 51 AUDIO
    TITLE "0:"
    INDEX 01 01:07:39
  TRACK 52 AUDIO
    TITLE "4:cjc157_1228"
    INDEX 01 01:08:13
  TRACK 53 AUDIO
    TITLE "0:"
    INDEX 01 01:09:20
  TRACK 54 AUDIO
    TITLE "5:cjc157_1229"
    INDEX 01 01:09:65
  TRACK 55 AUDIO
    TITLE "0:"
    INDEX 01 01:12:03
  TRACK 56 AUDIO
    TITLE "5:cjc157_1230"
    INDEX 01 01:12:50
  TRACK 57 AUDIO
    TITLE "0:"
    INDEX 01 01:15:64
  TRACK 58 AUDIO
    TITLE "3:cjc157_1231"
    INDEX 01 01:16:34
  TRACK 59 AUDIO
    TITLE "0:"
    INDEX 01 01:17:47
  TRACK 60 AUDIO
    TITLE "4:cjc157_1232"
    INDEX 01 01:18:17
  TRACK 61 AUDIO
    TITLE "0:"
    INDEX 01 01:19:40
  TRACK 62 AUDIO
    TITLE "5:cjc157_1233"
    INDEX 01 01:20:12
  TRACK 63 AUDIO
    TITLE "0:"
    INDEX 01 01:23:34
  TRACK 64 AUDIO
    TITLE "5:cjc157_1234"
    INDEX 01 01:24:22
  TRACK 65 AUDIO
    TITLE "0:"
    INDEX 01 01:26:25
  TRACK 66 AUDIO
    TITLE "5:cjc157_1235"
    INDEX 01 01:26:66
  TRACK 67 AUDIO
    TITLE "0:"
    INDEX 01 01:28:24
  TRACK 68 AUDIO
    TITLE "3:cjc157_1236"
    INDEX 01 01:28:71
  TRACK 69 AUDIO
    TITLE "0:"
    INDEX 01 01:30:11
  TRACK 70 AUDIO
    TITLE "4:cjc157_1237"
    INDEX 01 01:30:58
  TRACK 71 AUDIO
    TITLE "0:"
    INDEX 01 01:32:15
  TRACK 72 AUDIO
    TITLE "5:cjc157_1238"
    INDEX 01 01:32:72
  TRACK 73 AUDIO
    TITLE "0:"
    INDEX 01 01:36:15
  TRACK 74 AUDIO
    TITLE "3:cjc157_1239"
    INDEX 01 01:36:60
  TRACK 75 AUDIO
    TITLE "0:"
    INDEX 01 01:38:10
  TRACK 76 AUDIO
    TITLE "4:cjc157_1240"
    INDEX 01 01:38:55
  TRACK 77 AUDIO
    TITLE "0:"
    INDEX 01 01:39:63
  TRACK 78 AUDIO
    TITLE "5:cjc157_1241"
    INDEX 01 01:40:31
  TRACK 79 AUDIO
    TITLE "0:"
    INDEX 01 01:43:03
  TRACK 80 AUDIO
    TITLE "5:cjc157_1242"
    INDEX 01 01:43:51
  TRACK 81 AUDIO
    TITLE "0:"
    INDEX 01 01:46:68
  TRACK 82 AUDIO
    TITLE "5:cjc157_1243"
    INDEX 01 01:47:40
  TRACK 83 AUDIO
    TITLE "0:"
    INDEX 01 01:50:07
  TRACK 84 AUDIO
    TITLE "5:cjc157_1244"
    INDEX 01 01:50:56
  TRACK 85 AUDIO
    TITLE "0:"
    INDEX 01 01:53:16
  TRACK 86 AUDIO
    TITLE "5:cjc157_1245"
    INDEX 01 01:53:69
  TRACK 87 AUDIO
    TITLE "0:"
    INDEX 01 01:56:22
